<?xml version="1.0" encoding="UTF-8" standalone="no"?>
<svg
   xmlns:dc="http://purl.org/dc/elements/1.1/"
   xmlns:cc="http://creativecommons.org/ns#"
   xmlns:rdf="http://www.w3.org/1999/02/22-rdf-syntax-ns#"
   xmlns:svg="http://www.w3.org/2000/svg"
   xmlns="http://www.w3.org/2000/svg"
   xmlns:sodipodi="http://sodipodi.sourceforge.net/DTD/sodipodi-0.dtd"
   xmlns:inkscape="http://www.inkscape.org/namespaces/inkscape"
   height="32"
   width="32"
   version="1.1"
   id="svg46"
   sodipodi:docname="diaspora-tile.svg"
   inkscape:version="1.0beta2 (2b71d25, 2019-12-03)">
  <metadata
     id="metadata50">
    <rdf:RDF>
      <cc:Work
         rdf:about="">
        <dc:format>image/svg+xml</dc:format>
        <dc:type
           rdf:resource="http://purl.org/dc/dcmitype/StillImage" />
        <dc:title></dc:title>
      </cc:Work>
    </rdf:RDF>
  </metadata>
  <sodipodi:namedview
     pagecolor="#ffffff"
     bordercolor="#666666"
     inkscape:document-rotation="0"
     borderopacity="1"
     objecttolerance="10"
     gridtolerance="10"
     guidetolerance="10"
     inkscape:pageopacity="0"
     inkscape:pageshadow="2"
     inkscape:window-width="2560"
     inkscape:window-height="1035"
     id="namedview48"
     showgrid="false"
     inkscape:zoom="10.677301"
     inkscape:cx="7.3655704"
     inkscape:cy="5.0832805"
     inkscape:window-x="0"
     inkscape:window-y="23"
     inkscape:window-maximized="1"
     inkscape:current-layer="g44" />
  <defs
     id="defs14">
    <clipPath
       id="A">
      <path
         d="M 0,600 H 600 V 0 H 0 Z"
         id="path10"
         inkscape:connector-curvature="0" />
    </clipPath>
    <path
       id="B"
       d="m 287.79,242.925 c 0,-3.207 -2.6,-5.806 -5.806,-5.806 -3.206,0 -5.806,2.6 -5.806,5.806 0,3.206 2.6,5.806 5.806,5.806 3.206,0 5.806,-2.6 5.806,-5.806"
       inkscape:connector-curvature="0" />
  </defs>
  <g
     clip-path="url(#A)"
     transform="matrix(2.270036,0,0,-2.270036,-415.47185,914.67882)"
     id="g44">
    <rect
       style="fill:#1a1a1a;stroke:none;stroke-width:0.440521"
       id="rect97"
       width="14.068924"
       height="14.040897"
       x="183.03822"
       y="-402.90793"
       transform="scale(1,-1)"
       ry="1.1210296" />
    <g
       transform="matrix(1.2992865,0,0,1.2992865,-57.176886,-118.24092)"
       id="g263">
      <rect
         style="fill:#ffffff;stroke:#ffffff;stroke-width:0.407787"
         id="rect253"
         width="9.1879063"
         height="8.8433561"
         x="185.70245"
         y="-400.12222"
         transform="scale(1,-1)"
         ry="1.0377266" />
      <path
         style="fill:#000000;stroke-width:0.0124069"
         d="m 185.33369,395.70056 v 4.77663 h 4.96274 4.96273 v -4.77663 -4.77663 h -4.96273 -4.96274 z m 7.66122,-4.00292 c 0.49131,0.36127 0.89459,0.65779 0.89619,0.6589 0.002,0.002 -0.29637,0.43994 -0.66214,0.97514 -1.10862,1.62219 -1.07537,1.57201 -1.05014,1.58469 0.0121,0.006 0.67108,0.23091 1.46435,0.49957 0.79326,0.26866 1.44229,0.49364 1.44229,0.49995 0,0.0154 -0.65626,2.13239 -0.66321,2.13934 -0.003,0.003 -0.6548,-0.21487 -1.44841,-0.48419 l -1.44293,-0.48968 -0.008,0.0447 c -0.005,0.0245 -0.0259,0.73421 -0.0473,1.57694 -0.0214,0.84274 -0.0415,1.55039 -0.0449,1.57257 l -0.006,0.0403 h -1.10211 -1.10211 l -0.008,-0.51179 c -0.004,-0.28148 -0.0112,-0.98494 -0.0155,-1.56326 -0.006,-0.85559 -0.0109,-1.05147 -0.0241,-1.05147 -0.009,0 -0.68601,0.22052 -1.50457,0.49006 -0.81856,0.26953 -1.49355,0.49007 -1.49998,0.49007 -0.01,0 -0.68635,-2.10224 -0.68526,-2.13006 2.1e-4,-0.005 0.64558,-0.22418 1.43414,-0.4858 1.26717,-0.42043 1.43305,-0.47834 1.4278,-0.49845 -0.006,-0.0222 -0.1104,-0.17494 -1.25183,-1.82796 l -0.55557,-0.80458 0.91386,-0.64287 c 0.90889,-0.63936 0.91397,-0.64272 0.93455,-0.616 0.0113,0.0148 0.40491,0.55448 0.87452,1.19932 0.46961,0.64485 0.87219,1.1966 0.89464,1.22612 l 0.0408,0.0537 0.072,-0.0973 c 0.0396,-0.0535 0.46251,-0.64261 0.93982,-1.30907 0.49945,-0.69737 0.87338,-1.20835 0.88088,-1.20375 0.007,0.005 0.41504,0.30359 0.90635,0.66487 z"
         id="path251"
         inkscape:connector-curvature="0" />
    </g>
  </g>
</svg>
